# xmcd
#
# Track frame offsets:
#	150
#	16870
#	32157
#	45472
#	56339
#	74600
#	88881
#	98347
#	110487
#	122979
#	137584
#	149843
#	167253
#	175157
#	201629
#	213396
#
# Disc length: 2943 seconds
#
# Revision: 0
# Processed by: cddbd v1.5.2PL0 Copyright (c) Steve Scherf et al.
# Submitted via: EasyCDDAExtractor 12.1.0.1
#
DISCID=e70b7d10
DTITLE=Simon Kerney - La vie en mauve
DYEAR=2015
DGENRE=Chanson quebecoise
TTITLE0=Hey Man
TTITLE1=Californie
TTITLE2=Comme un acide
TTITLE3=514-287-0255
TTITLE4=Chaminao
TTITLE5=La chevre
TTITLE6=Megan
TTITLE7=Viens me voir a l'hopital
TTITLE8=En attendant
TTITLE9=Un orage
TTITLE10=Put It On Sunshine
TTITLE11=Le moine
TTITLE12=Si je m'endors pour quelque temps
TTITLE13=J'aurais du la tuer
TTITLE14=Montre-moi tes fesses
TTITLE15=La vie en mauve
EXTD=
EXTT0=
EXTT1=
EXTT2=
EXTT3=
EXTT4=
EXTT5=
EXTT6=
EXTT7=
EXTT8=
EXTT9=
EXTT10=
EXTT11=
EXTT12=
EXTT13=
EXTT14=
EXTT15=
PLAYORDER=
